<?xml version="1.0" encoding="UTF-8" standalone="no"?>
<!DOCTYPE svg PUBLIC "-//W3C//DTD SVG 1.1//EN"
 "http://www.w3.org/Graphics/SVG/1.1/DTD/svg11.dtd">
<!-- Generated by graphviz version 2.50.0 (0)
 -->
<!-- Title: snakemake_dag Pages: 1 -->
<svg width="1239pt" height="646pt"
 viewBox="0.00 0.00 1238.50 646.00" xmlns="http://www.w3.org/2000/svg" xmlns:xlink="http://www.w3.org/1999/xlink">
<g id="graph0" class="graph" transform="scale(1 1) rotate(0) translate(4 642)">
<title>snakemake_dag</title>
<polygon fill="white" stroke="transparent" points="-4,4 -4,-642 1234.5,-642 1234.5,4 -4,4"/>
<!-- 0 -->
<g id="node1" class="node">
<title>0</title>
<path fill="none" stroke="#c6d856" stroke-width="2" d="M1022,-36C1022,-36 825,-36 825,-36 819,-36 813,-30 813,-24 813,-24 813,-12 813,-12 813,-6 819,0 825,0 825,0 1022,0 1022,0 1028,0 1034,-6 1034,-12 1034,-12 1034,-24 1034,-24 1034,-30 1028,-36 1022,-36"/>
<text text-anchor="middle" x="923.5" y="-21" font-family="sans" font-size="10.00">haplotag_final_bam</text>
<text text-anchor="middle" x="923.5" y="-10" font-family="sans" font-size="10.00">sseq_cell: NW150212&#45;III.52.L001.srt.mdup</text>
</g>
<!-- 1 -->
<g id="node2" class="node">
<title>1</title>
<path fill="none" stroke="#56d8a2" stroke-width="2" d="M742,-180C742,-180 641,-180 641,-180 635,-180 629,-174 629,-168 629,-168 629,-156 629,-156 629,-150 635,-144 641,-144 641,-144 742,-144 742,-144 748,-144 754,-150 754,-156 754,-156 754,-168 754,-168 754,-174 748,-180 742,-180"/>
<text text-anchor="middle" x="691.5" y="-159.5" font-family="sans" font-size="10.00">merge_eight_into_one</text>
</g>
<!-- 1&#45;&gt;0 -->
<g id="edge1" class="edge">
<title>1&#45;&gt;0</title>
<path fill="none" stroke="grey" stroke-width="2" d="M754.15,-152.84C809.26,-144.37 883.84,-129.37 904.5,-108 920.16,-91.8 924.27,-66.04 924.84,-46.39"/>
<polygon fill="grey" stroke="grey" stroke-width="2" points="928.34,-46.2 924.84,-36.2 921.34,-46.2 928.34,-46.2"/>
</g>
<!-- 26 -->
<g id="node27" class="node">
<title>26</title>
<path fill="none" stroke="#59d856" stroke-width="2" d="M883,-108C883,-108 500,-108 500,-108 494,-108 488,-102 488,-96 488,-96 488,-84 488,-84 488,-78 494,-72 500,-72 500,-72 883,-72 883,-72 889,-72 895,-78 895,-84 895,-84 895,-96 895,-96 895,-102 889,-108 883,-108"/>
<text text-anchor="middle" x="691.5" y="-93" font-family="sans" font-size="10.00">index_bam</text>
<text text-anchor="middle" x="691.5" y="-82" font-family="sans" font-size="10.00">foo: res/NA12878/NW150212&#45;III.52.L001.srt.mdup/chr22/strong_res/strong_reads</text>
</g>
<!-- 1&#45;&gt;26 -->
<g id="edge43" class="edge">
<title>1&#45;&gt;26</title>
<path fill="none" stroke="grey" stroke-width="2" d="M691.5,-143.7C691.5,-135.98 691.5,-126.71 691.5,-118.11"/>
<polygon fill="grey" stroke="grey" stroke-width="2" points="695,-118.1 691.5,-108.1 688,-118.1 695,-118.1"/>
</g>
<!-- 2 -->
<g id="node3" class="node">
<title>2</title>
<path fill="none" stroke="#56d87b" stroke-width="2" d="M973,-252C973,-252 896,-252 896,-252 890,-252 884,-246 884,-240 884,-240 884,-228 884,-228 884,-222 890,-216 896,-216 896,-216 973,-216 973,-216 979,-216 985,-222 985,-228 985,-228 985,-240 985,-240 985,-246 979,-252 973,-252"/>
<text text-anchor="middle" x="934.5" y="-237" font-family="sans" font-size="10.00">flip_a_plusify</text>
<text text-anchor="middle" x="934.5" y="-226" font-family="sans" font-size="10.00">operation: plusify</text>
</g>
<!-- 2&#45;&gt;1 -->
<g id="edge4" class="edge">
<title>2&#45;&gt;1</title>
<path fill="none" stroke="grey" stroke-width="2" d="M883.86,-218.41C848.08,-208.11 799.71,-194.17 760.42,-182.85"/>
<polygon fill="grey" stroke="grey" stroke-width="2" points="761.22,-179.44 750.64,-180.04 759.28,-186.17 761.22,-179.44"/>
</g>
<!-- 3 -->
<g id="node4" class="node">
<title>3</title>
<path fill="none" stroke="#d8c356" stroke-width="2" d="M1190,-324C1190,-324 927,-324 927,-324 921,-324 915,-318 915,-312 915,-312 915,-300 915,-300 915,-294 921,-288 927,-288 927,-288 1190,-288 1190,-288 1196,-288 1202,-294 1202,-300 1202,-300 1202,-312 1202,-312 1202,-318 1196,-324 1190,-324"/>
<text text-anchor="middle" x="1058.5" y="-309" font-family="sans" font-size="10.00">make_eight_plusify_minusify</text>
<text text-anchor="middle" x="1058.5" y="-298" font-family="sans" font-size="10.00">foo: res/NA12878/NW150212&#45;III.52.L001.srt.mdup/chr22</text>
</g>
<!-- 3&#45;&gt;2 -->
<g id="edge12" class="edge">
<title>3&#45;&gt;2</title>
<path fill="none" stroke="grey" stroke-width="2" d="M1028.17,-287.88C1011.8,-278.64 991.42,-267.13 973.85,-257.21"/>
<polygon fill="grey" stroke="grey" stroke-width="2" points="975.38,-254.06 964.95,-252.19 971.94,-260.15 975.38,-254.06"/>
</g>
<!-- 13 -->
<g id="node14" class="node">
<title>13</title>
<path fill="none" stroke="#56d87b" stroke-width="2" d="M1102,-252C1102,-252 1015,-252 1015,-252 1009,-252 1003,-246 1003,-240 1003,-240 1003,-228 1003,-228 1003,-222 1009,-216 1015,-216 1015,-216 1102,-216 1102,-216 1108,-216 1114,-222 1114,-228 1114,-228 1114,-240 1114,-240 1114,-246 1108,-252 1102,-252"/>
<text text-anchor="middle" x="1058.5" y="-237" font-family="sans" font-size="10.00">flip_a_plusify</text>
<text text-anchor="middle" x="1058.5" y="-226" font-family="sans" font-size="10.00">operation: minusify</text>
</g>
<!-- 3&#45;&gt;13 -->
<g id="edge27" class="edge">
<title>3&#45;&gt;13</title>
<path fill="none" stroke="grey" stroke-width="2" d="M1058.5,-287.7C1058.5,-279.98 1058.5,-270.71 1058.5,-262.11"/>
<polygon fill="grey" stroke="grey" stroke-width="2" points="1062,-262.1 1058.5,-252.1 1055,-262.1 1062,-262.1"/>
</g>
<!-- 4 -->
<g id="node5" class="node">
<title>4</title>
<path fill="none" stroke="#567bd8" stroke-width="2" d="M830,-401C830,-401 711,-401 711,-401 705,-401 699,-395 699,-389 699,-389 699,-372 699,-372 699,-366 705,-360 711,-360 711,-360 830,-360 830,-360 836,-360 842,-366 842,-372 842,-372 842,-389 842,-389 842,-395 836,-401 830,-401"/>
<text text-anchor="middle" x="770.5" y="-389" font-family="sans" font-size="10.00">split_sseq_hx_plus_minus</text>
<text text-anchor="middle" x="770.5" y="-378" font-family="sans" font-size="10.00">direction: plus</text>
<text text-anchor="middle" x="770.5" y="-367" font-family="sans" font-size="10.00">hap: h1</text>
</g>
<!-- 4&#45;&gt;3 -->
<g id="edge13" class="edge">
<title>4&#45;&gt;3</title>
<path fill="none" stroke="grey" stroke-width="2" d="M842.06,-361.49C884.25,-350.86 937.67,-337.42 980.87,-326.54"/>
<polygon fill="grey" stroke="grey" stroke-width="2" points="981.93,-329.88 990.77,-324.05 980.22,-323.1 981.93,-329.88"/>
</g>
<!-- 5 -->
<g id="node6" class="node">
<title>5</title>
<path fill="none" stroke="#d8a456" stroke-width="2" d="M617.5,-473C617.5,-473 541.5,-473 541.5,-473 535.5,-473 529.5,-467 529.5,-461 529.5,-461 529.5,-449 529.5,-449 529.5,-443 535.5,-437 541.5,-437 541.5,-437 617.5,-437 617.5,-437 623.5,-437 629.5,-443 629.5,-449 629.5,-449 629.5,-461 629.5,-461 629.5,-467 623.5,-473 617.5,-473"/>
<text text-anchor="middle" x="579.5" y="-452.5" font-family="sans" font-size="10.00">split_sseq_h1_h2</text>
</g>
<!-- 5&#45;&gt;4 -->
<g id="edge15" class="edge">
<title>5&#45;&gt;4</title>
<path fill="none" stroke="grey" stroke-width="2" d="M624.76,-436.82C650.03,-427.23 681.84,-415.15 709.3,-404.73"/>
<polygon fill="grey" stroke="grey" stroke-width="2" points="710.71,-407.94 718.81,-401.12 708.22,-401.4 710.71,-407.94"/>
</g>
<!-- 16 -->
<g id="node17" class="node">
<title>16</title>
<path fill="none" stroke="#567bd8" stroke-width="2" d="M669,-401C669,-401 550,-401 550,-401 544,-401 538,-395 538,-389 538,-389 538,-372 538,-372 538,-366 544,-360 550,-360 550,-360 669,-360 669,-360 675,-360 681,-366 681,-372 681,-372 681,-389 681,-389 681,-395 675,-401 669,-401"/>
<text text-anchor="middle" x="609.5" y="-389" font-family="sans" font-size="10.00">split_sseq_hx_plus_minus</text>
<text text-anchor="middle" x="609.5" y="-378" font-family="sans" font-size="10.00">direction: minus</text>
<text text-anchor="middle" x="609.5" y="-367" font-family="sans" font-size="10.00">hap: h1</text>
</g>
<!-- 5&#45;&gt;16 -->
<g id="edge31" class="edge">
<title>5&#45;&gt;16</title>
<path fill="none" stroke="grey" stroke-width="2" d="M586.61,-436.82C589.87,-428.95 593.82,-419.4 597.52,-410.46"/>
<polygon fill="grey" stroke="grey" stroke-width="2" points="600.79,-411.7 601.38,-401.12 594.32,-409.02 600.79,-411.7"/>
</g>
<!-- 20 -->
<g id="node21" class="node">
<title>20</title>
<path fill="none" stroke="#567bd8" stroke-width="2" d="M275,-401C275,-401 156,-401 156,-401 150,-401 144,-395 144,-389 144,-389 144,-372 144,-372 144,-366 150,-360 156,-360 156,-360 275,-360 275,-360 281,-360 287,-366 287,-372 287,-372 287,-389 287,-389 287,-395 281,-401 275,-401"/>
<text text-anchor="middle" x="215.5" y="-389" font-family="sans" font-size="10.00">split_sseq_hx_plus_minus</text>
<text text-anchor="middle" x="215.5" y="-378" font-family="sans" font-size="10.00">direction: plus</text>
<text text-anchor="middle" x="215.5" y="-367" font-family="sans" font-size="10.00">hap: h2</text>
</g>
<!-- 5&#45;&gt;20 -->
<g id="edge36" class="edge">
<title>5&#45;&gt;20</title>
<path fill="none" stroke="grey" stroke-width="2" d="M529.27,-444C469.29,-432.05 368.16,-411.91 296.96,-397.72"/>
<polygon fill="grey" stroke="grey" stroke-width="2" points="297.61,-394.28 287.11,-395.76 296.24,-401.15 297.61,-394.28"/>
</g>
<!-- 24 -->
<g id="node25" class="node">
<title>24</title>
<path fill="none" stroke="#567bd8" stroke-width="2" d="M508,-401C508,-401 389,-401 389,-401 383,-401 377,-395 377,-389 377,-389 377,-372 377,-372 377,-366 383,-360 389,-360 389,-360 508,-360 508,-360 514,-360 520,-366 520,-372 520,-372 520,-389 520,-389 520,-395 514,-401 508,-401"/>
<text text-anchor="middle" x="448.5" y="-389" font-family="sans" font-size="10.00">split_sseq_hx_plus_minus</text>
<text text-anchor="middle" x="448.5" y="-378" font-family="sans" font-size="10.00">direction: minus</text>
<text text-anchor="middle" x="448.5" y="-367" font-family="sans" font-size="10.00">hap: h2</text>
</g>
<!-- 5&#45;&gt;24 -->
<g id="edge41" class="edge">
<title>5&#45;&gt;24</title>
<path fill="none" stroke="grey" stroke-width="2" d="M548.45,-436.82C531.81,-427.61 511.01,-416.1 492.71,-405.97"/>
<polygon fill="grey" stroke="grey" stroke-width="2" points="494.39,-402.9 483.95,-401.12 491.01,-409.02 494.39,-402.9"/>
</g>
<!-- 6 -->
<g id="node7" class="node">
<title>6</title>
<path fill="none" stroke="#78d856" stroke-width="2" d="M550,-638C550,-638 353,-638 353,-638 347,-638 341,-632 341,-626 341,-626 341,-598 341,-598 341,-592 347,-586 353,-586 353,-586 550,-586 550,-586 556,-586 562,-592 562,-598 562,-598 562,-626 562,-626 562,-632 556,-638 550,-638"/>
<text text-anchor="middle" x="451.5" y="-626" font-family="sans" font-size="10.00">turn_seqq_bam_into_one_chr</text>
<text text-anchor="middle" x="451.5" y="-615" font-family="sans" font-size="10.00">chr: chr22</text>
<text text-anchor="middle" x="451.5" y="-604" font-family="sans" font-size="10.00">sample: NA12878</text>
<text text-anchor="middle" x="451.5" y="-593" font-family="sans" font-size="10.00">sseq_cell: NW150212&#45;III.52.L001.srt.mdup</text>
</g>
<!-- 6&#45;&gt;5 -->
<g id="edge16" class="edge">
<title>6&#45;&gt;5</title>
<path fill="none" stroke="grey" stroke-width="2" d="M403.85,-585.7C390.97,-576.33 378.63,-564.4 371.5,-550 363.42,-533.67 360.32,-523.39 371.5,-509 389.58,-485.73 464.71,-470.99 519.5,-463.11"/>
<polygon fill="grey" stroke="grey" stroke-width="2" points="520.05,-466.57 529.47,-461.72 519.08,-459.64 520.05,-466.57"/>
</g>
<!-- 7 -->
<g id="node8" class="node">
<title>7</title>
<path fill="none" stroke="#59d856" stroke-width="2" d="M708,-547.5C708,-547.5 393,-547.5 393,-547.5 387,-547.5 381,-541.5 381,-535.5 381,-535.5 381,-523.5 381,-523.5 381,-517.5 387,-511.5 393,-511.5 393,-511.5 708,-511.5 708,-511.5 714,-511.5 720,-517.5 720,-523.5 720,-523.5 720,-535.5 720,-535.5 720,-541.5 714,-547.5 708,-547.5"/>
<text text-anchor="middle" x="550.5" y="-532.5" font-family="sans" font-size="10.00">index_bam</text>
<text text-anchor="middle" x="550.5" y="-521.5" font-family="sans" font-size="10.00">foo: res/NA12878/NW150212&#45;III.52.L001.srt.mdup/chr22/sseq_split</text>
</g>
<!-- 6&#45;&gt;7 -->
<g id="edge20" class="edge">
<title>6&#45;&gt;7</title>
<path fill="none" stroke="grey" stroke-width="2" d="M482.28,-585.97C494.85,-575.75 509.31,-563.99 521.68,-553.94"/>
<polygon fill="grey" stroke="grey" stroke-width="2" points="523.91,-556.63 529.46,-547.61 519.49,-551.2 523.91,-556.63"/>
</g>
<!-- 7&#45;&gt;5 -->
<g id="edge17" class="edge">
<title>7&#45;&gt;5</title>
<path fill="none" stroke="grey" stroke-width="2" d="M557.37,-511.32C560.8,-502.74 565.03,-492.17 568.87,-482.58"/>
<polygon fill="grey" stroke="grey" stroke-width="2" points="572.21,-483.64 572.68,-473.06 565.71,-481.04 572.21,-483.64"/>
</g>
<!-- 8 -->
<g id="node9" class="node">
<title>8</title>
<path fill="none" stroke="#56a2d8" stroke-width="2" stroke-dasharray="5,2" d="M1051,-632.5C1051,-632.5 964,-632.5 964,-632.5 958,-632.5 952,-626.5 952,-620.5 952,-620.5 952,-603.5 952,-603.5 952,-597.5 958,-591.5 964,-591.5 964,-591.5 1051,-591.5 1051,-591.5 1057,-591.5 1063,-597.5 1063,-603.5 1063,-603.5 1063,-620.5 1063,-620.5 1063,-626.5 1057,-632.5 1051,-632.5"/>
<text text-anchor="middle" x="1007.5" y="-620.5" font-family="sans" font-size="10.00">obtain_het_snp_vcf</text>
<text text-anchor="middle" x="1007.5" y="-609.5" font-family="sans" font-size="10.00">chr: chr22</text>
<text text-anchor="middle" x="1007.5" y="-598.5" font-family="sans" font-size="10.00">sample: NA12878</text>
</g>
<!-- 8&#45;&gt;0 -->
<g id="edge3" class="edge">
<title>8&#45;&gt;0</title>
<path fill="none" stroke="grey" stroke-width="2" d="M1063.2,-598.24C1129.25,-579.43 1230.5,-537.33 1230.5,-456 1230.5,-456 1230.5,-456 1230.5,-161 1230.5,-75.14 1130.36,-41.03 1044.46,-27.57"/>
<polygon fill="grey" stroke="grey" stroke-width="2" points="1044.74,-24.08 1034.33,-26.07 1043.71,-31 1044.74,-24.08"/>
</g>
<!-- 8&#45;&gt;5 -->
<g id="edge18" class="edge">
<title>8&#45;&gt;5</title>
<path fill="none" stroke="grey" stroke-width="2" d="M951.76,-605.73C900.86,-598.93 825.01,-583.67 767.5,-550 745.8,-537.29 749.59,-522.7 728.5,-509 701.52,-491.47 668.02,-478.89 639.62,-470.39"/>
<polygon fill="grey" stroke="grey" stroke-width="2" points="640.39,-466.97 629.81,-467.55 638.44,-473.69 640.39,-466.97"/>
</g>
<!-- 9 -->
<g id="node10" class="node">
<title>9</title>
<path fill="none" stroke="#56d8c9" stroke-width="2" stroke-dasharray="5,2" d="M940,-547.5C940,-547.5 789,-547.5 789,-547.5 783,-547.5 777,-541.5 777,-535.5 777,-535.5 777,-523.5 777,-523.5 777,-517.5 783,-511.5 789,-511.5 789,-511.5 940,-511.5 940,-511.5 946,-511.5 952,-517.5 952,-523.5 952,-523.5 952,-535.5 952,-535.5 952,-541.5 946,-547.5 940,-547.5"/>
<text text-anchor="middle" x="864.5" y="-532.5" font-family="sans" font-size="10.00">index_vcf</text>
<text text-anchor="middle" x="864.5" y="-521.5" font-family="sans" font-size="10.00">foo: res/NA12878/het_vcfs/chr22</text>
</g>
<!-- 8&#45;&gt;9 -->
<g id="edge21" class="edge">
<title>8&#45;&gt;9</title>
<path fill="none" stroke="grey" stroke-width="2" d="M972.52,-591.31C951.68,-579.58 925.19,-564.66 903.66,-552.54"/>
<polygon fill="grey" stroke="grey" stroke-width="2" points="905.19,-549.39 894.76,-547.54 901.76,-555.49 905.19,-549.39"/>
</g>
<!-- 10 -->
<g id="node11" class="node">
<title>10</title>
<path fill="none" stroke="#d87d56" stroke-width="2" d="M1069,-398.5C1069,-398.5 872,-398.5 872,-398.5 866,-398.5 860,-392.5 860,-386.5 860,-386.5 860,-374.5 860,-374.5 860,-368.5 866,-362.5 872,-362.5 872,-362.5 1069,-362.5 1069,-362.5 1075,-362.5 1081,-368.5 1081,-374.5 1081,-374.5 1081,-386.5 1081,-386.5 1081,-392.5 1075,-398.5 1069,-398.5"/>
<text text-anchor="middle" x="970.5" y="-383.5" font-family="sans" font-size="10.00">split_longreads_h1_h2</text>
<text text-anchor="middle" x="970.5" y="-372.5" font-family="sans" font-size="10.00">sseq_cell: NW150212&#45;III.52.L001.srt.mdup</text>
</g>
<!-- 8&#45;&gt;10 -->
<g id="edge24" class="edge">
<title>8&#45;&gt;10</title>
<path fill="none" stroke="grey" stroke-width="2" d="M1063.06,-598.11C1088.56,-589.12 1116.41,-574.24 1131.5,-550 1141.13,-534.53 1134.19,-527.02 1131.5,-509 1126.56,-475.91 1132.15,-461.63 1109.5,-437 1095.36,-421.63 1076.41,-410.45 1057.05,-402.33"/>
<polygon fill="grey" stroke="grey" stroke-width="2" points="1058.12,-398.99 1047.54,-398.58 1055.56,-405.5 1058.12,-398.99"/>
</g>
<!-- 9&#45;&gt;5 -->
<g id="edge19" class="edge">
<title>9&#45;&gt;5</title>
<path fill="none" stroke="grey" stroke-width="2" d="M797.32,-511.41C749.48,-499.24 685.76,-483.03 639.6,-471.29"/>
<polygon fill="grey" stroke="grey" stroke-width="2" points="640.29,-467.85 629.74,-468.78 638.57,-474.64 640.29,-467.85"/>
</g>
<!-- 9&#45;&gt;10 -->
<g id="edge25" class="edge">
<title>9&#45;&gt;10</title>
<path fill="none" stroke="grey" stroke-width="2" d="M854.76,-511.22C845.17,-491.68 833.92,-459.65 848.5,-437 858.13,-422.03 872.9,-411.06 888.88,-403.02"/>
<polygon fill="grey" stroke="grey" stroke-width="2" points="890.78,-405.99 898.39,-398.62 887.84,-399.64 890.78,-405.99"/>
</g>
<!-- 10&#45;&gt;3 -->
<g id="edge14" class="edge">
<title>10&#45;&gt;3</title>
<path fill="none" stroke="grey" stroke-width="2" d="M991.35,-362.32C1002.86,-352.84 1017.32,-340.93 1029.87,-330.58"/>
<polygon fill="grey" stroke="grey" stroke-width="2" points="1032.3,-333.12 1037.79,-324.06 1027.85,-327.72 1032.3,-333.12"/>
</g>
<!-- 15 -->
<g id="node16" class="node">
<title>15</title>
<path fill="none" stroke="#d8c356" stroke-width="2" d="M885,-324C885,-324 622,-324 622,-324 616,-324 610,-318 610,-312 610,-312 610,-300 610,-300 610,-294 616,-288 622,-288 622,-288 885,-288 885,-288 891,-288 897,-294 897,-300 897,-300 897,-312 897,-312 897,-318 891,-324 885,-324"/>
<text text-anchor="middle" x="753.5" y="-309" font-family="sans" font-size="10.00">make_eight_plusify_minusify</text>
<text text-anchor="middle" x="753.5" y="-298" font-family="sans" font-size="10.00">foo: res/NA12878/NW150212&#45;III.52.L001.srt.mdup/chr22</text>
</g>
<!-- 10&#45;&gt;15 -->
<g id="edge30" class="edge">
<title>10&#45;&gt;15</title>
<path fill="none" stroke="grey" stroke-width="2" d="M919.35,-362.41C887.87,-351.89 847.36,-338.36 814.25,-327.3"/>
<polygon fill="grey" stroke="grey" stroke-width="2" points="815.28,-323.95 804.68,-324.1 813.06,-330.59 815.28,-323.95"/>
</g>
<!-- 19 -->
<g id="node20" class="node">
<title>19</title>
<path fill="none" stroke="#d8c356" stroke-width="2" d="M275,-324C275,-324 12,-324 12,-324 6,-324 0,-318 0,-312 0,-312 0,-300 0,-300 0,-294 6,-288 12,-288 12,-288 275,-288 275,-288 281,-288 287,-294 287,-300 287,-300 287,-312 287,-312 287,-318 281,-324 275,-324"/>
<text text-anchor="middle" x="143.5" y="-309" font-family="sans" font-size="10.00">make_eight_plusify_minusify</text>
<text text-anchor="middle" x="143.5" y="-298" font-family="sans" font-size="10.00">foo: res/NA12878/NW150212&#45;III.52.L001.srt.mdup/chr22</text>
</g>
<!-- 10&#45;&gt;19 -->
<g id="edge35" class="edge">
<title>10&#45;&gt;19</title>
<path fill="none" stroke="grey" stroke-width="2" d="M871.26,-362.49C864.58,-361.58 857.95,-360.74 851.5,-360 608.71,-332.31 543.87,-345.41 297.08,-324.11"/>
<polygon fill="grey" stroke="grey" stroke-width="2" points="297.36,-320.62 287.09,-323.24 296.75,-327.6 297.36,-320.62"/>
</g>
<!-- 23 -->
<g id="node24" class="node">
<title>23</title>
<path fill="none" stroke="#d8c356" stroke-width="2" d="M580,-324C580,-324 317,-324 317,-324 311,-324 305,-318 305,-312 305,-312 305,-300 305,-300 305,-294 311,-288 317,-288 317,-288 580,-288 580,-288 586,-288 592,-294 592,-300 592,-300 592,-312 592,-312 592,-318 586,-324 580,-324"/>
<text text-anchor="middle" x="448.5" y="-309" font-family="sans" font-size="10.00">make_eight_plusify_minusify</text>
<text text-anchor="middle" x="448.5" y="-298" font-family="sans" font-size="10.00">foo: res/NA12878/NW150212&#45;III.52.L001.srt.mdup/chr22</text>
</g>
<!-- 10&#45;&gt;23 -->
<g id="edge40" class="edge">
<title>10&#45;&gt;23</title>
<path fill="none" stroke="grey" stroke-width="2" d="M867.97,-362.49C862.4,-361.63 856.88,-360.8 851.5,-360 767.15,-347.55 672.65,-335.04 596.37,-325.31"/>
<polygon fill="grey" stroke="grey" stroke-width="2" points="596.57,-321.81 586.21,-324.01 595.69,-328.75 596.57,-321.81"/>
</g>
<!-- 11 -->
<g id="node12" class="node">
<title>11</title>
<path fill="none" stroke="#d85656" stroke-width="2" stroke-dasharray="5,2" d="M1110.5,-550C1110.5,-550 982.5,-550 982.5,-550 976.5,-550 970.5,-544 970.5,-538 970.5,-538 970.5,-521 970.5,-521 970.5,-515 976.5,-509 982.5,-509 982.5,-509 1110.5,-509 1110.5,-509 1116.5,-509 1122.5,-515 1122.5,-521 1122.5,-521 1122.5,-538 1122.5,-538 1122.5,-544 1116.5,-550 1110.5,-550"/>
<text text-anchor="middle" x="1046.5" y="-538" font-family="sans" font-size="10.00">turn_ont_bam_into_one_chr</text>
<text text-anchor="middle" x="1046.5" y="-527" font-family="sans" font-size="10.00">chr: chr22</text>
<text text-anchor="middle" x="1046.5" y="-516" font-family="sans" font-size="10.00">sample: NA12878</text>
</g>
<!-- 11&#45;&gt;10 -->
<g id="edge22" class="edge">
<title>11&#45;&gt;10</title>
<path fill="none" stroke="grey" stroke-width="2" d="M1068.62,-508.96C1087.32,-490 1108.81,-460.7 1093.5,-437 1083.83,-422.03 1069.05,-411.06 1053.04,-403.02"/>
<polygon fill="grey" stroke="grey" stroke-width="2" points="1054.06,-399.64 1043.51,-398.63 1051.12,-405.99 1054.06,-399.64"/>
</g>
<!-- 12 -->
<g id="node13" class="node">
<title>12</title>
<path fill="none" stroke="#59d856" stroke-width="2" stroke-dasharray="5,2" d="M1072,-473C1072,-473 869,-473 869,-473 863,-473 857,-467 857,-461 857,-461 857,-449 857,-449 857,-443 863,-437 869,-437 869,-437 1072,-437 1072,-437 1078,-437 1084,-443 1084,-449 1084,-449 1084,-461 1084,-461 1084,-467 1078,-473 1072,-473"/>
<text text-anchor="middle" x="970.5" y="-458" font-family="sans" font-size="10.00">index_bam</text>
<text text-anchor="middle" x="970.5" y="-447" font-family="sans" font-size="10.00">foo: res/NA12878/ont_bams/chr22/ont_split</text>
</g>
<!-- 11&#45;&gt;12 -->
<g id="edge26" class="edge">
<title>11&#45;&gt;12</title>
<path fill="none" stroke="grey" stroke-width="2" d="M1025.73,-508.69C1016.51,-499.89 1005.56,-489.45 995.86,-480.19"/>
<polygon fill="grey" stroke="grey" stroke-width="2" points="998.05,-477.45 988.4,-473.08 993.22,-482.51 998.05,-477.45"/>
</g>
<!-- 12&#45;&gt;10 -->
<g id="edge23" class="edge">
<title>12&#45;&gt;10</title>
<path fill="none" stroke="grey" stroke-width="2" d="M970.5,-436.82C970.5,-428.42 970.5,-418.12 970.5,-408.69"/>
<polygon fill="grey" stroke="grey" stroke-width="2" points="974,-408.56 970.5,-398.56 967,-408.56 974,-408.56"/>
</g>
<!-- 13&#45;&gt;1 -->
<g id="edge5" class="edge">
<title>13&#45;&gt;1</title>
<path fill="none" stroke="grey" stroke-width="2" d="M1002.72,-217.88C999.95,-217.22 997.19,-216.59 994.5,-216 916.31,-198.81 825.8,-183.58 764.2,-173.91"/>
<polygon fill="grey" stroke="grey" stroke-width="2" points="764.61,-170.43 754.19,-172.34 763.53,-177.35 764.61,-170.43"/>
</g>
<!-- 14 -->
<g id="node15" class="node">
<title>14</title>
<path fill="none" stroke="#56d87b" stroke-width="2" d="M854,-252C854,-252 777,-252 777,-252 771,-252 765,-246 765,-240 765,-240 765,-228 765,-228 765,-222 771,-216 777,-216 777,-216 854,-216 854,-216 860,-216 866,-222 866,-228 866,-228 866,-240 866,-240 866,-246 860,-252 854,-252"/>
<text text-anchor="middle" x="815.5" y="-237" font-family="sans" font-size="10.00">flip_a_plusify</text>
<text text-anchor="middle" x="815.5" y="-226" font-family="sans" font-size="10.00">operation: plusify</text>
</g>
<!-- 14&#45;&gt;1 -->
<g id="edge6" class="edge">
<title>14&#45;&gt;1</title>
<path fill="none" stroke="grey" stroke-width="2" d="M785.17,-215.88C768.8,-206.64 748.42,-195.13 730.85,-185.21"/>
<polygon fill="grey" stroke="grey" stroke-width="2" points="732.38,-182.06 721.95,-180.19 728.94,-188.15 732.38,-182.06"/>
</g>
<!-- 15&#45;&gt;14 -->
<g id="edge28" class="edge">
<title>15&#45;&gt;14</title>
<path fill="none" stroke="grey" stroke-width="2" d="M768.83,-287.7C776.26,-279.3 785.32,-269.07 793.48,-259.86"/>
<polygon fill="grey" stroke="grey" stroke-width="2" points="796.34,-261.91 800.35,-252.1 791.1,-257.27 796.34,-261.91"/>
</g>
<!-- 17 -->
<g id="node18" class="node">
<title>17</title>
<path fill="none" stroke="#56d87b" stroke-width="2" d="M735,-252C735,-252 648,-252 648,-252 642,-252 636,-246 636,-240 636,-240 636,-228 636,-228 636,-222 642,-216 648,-216 648,-216 735,-216 735,-216 741,-216 747,-222 747,-228 747,-228 747,-240 747,-240 747,-246 741,-252 735,-252"/>
<text text-anchor="middle" x="691.5" y="-237" font-family="sans" font-size="10.00">flip_a_plusify</text>
<text text-anchor="middle" x="691.5" y="-226" font-family="sans" font-size="10.00">operation: minusify</text>
</g>
<!-- 15&#45;&gt;17 -->
<g id="edge32" class="edge">
<title>15&#45;&gt;17</title>
<path fill="none" stroke="grey" stroke-width="2" d="M738.17,-287.7C730.74,-279.3 721.68,-269.07 713.52,-259.86"/>
<polygon fill="grey" stroke="grey" stroke-width="2" points="715.9,-257.27 706.65,-252.1 710.66,-261.91 715.9,-257.27"/>
</g>
<!-- 16&#45;&gt;15 -->
<g id="edge29" class="edge">
<title>16&#45;&gt;15</title>
<path fill="none" stroke="grey" stroke-width="2" d="M648.47,-359.88C667.6,-350.25 690.69,-338.62 710.35,-328.72"/>
<polygon fill="grey" stroke="grey" stroke-width="2" points="712.05,-331.79 719.4,-324.17 708.9,-325.54 712.05,-331.79"/>
</g>
<!-- 17&#45;&gt;1 -->
<g id="edge7" class="edge">
<title>17&#45;&gt;1</title>
<path fill="none" stroke="grey" stroke-width="2" d="M691.5,-215.7C691.5,-207.98 691.5,-198.71 691.5,-190.11"/>
<polygon fill="grey" stroke="grey" stroke-width="2" points="695,-190.1 691.5,-180.1 688,-190.1 695,-190.1"/>
</g>
<!-- 18 -->
<g id="node19" class="node">
<title>18</title>
<path fill="none" stroke="#56d87b" stroke-width="2" d="M194,-252C194,-252 117,-252 117,-252 111,-252 105,-246 105,-240 105,-240 105,-228 105,-228 105,-222 111,-216 117,-216 117,-216 194,-216 194,-216 200,-216 206,-222 206,-228 206,-228 206,-240 206,-240 206,-246 200,-252 194,-252"/>
<text text-anchor="middle" x="155.5" y="-237" font-family="sans" font-size="10.00">flip_a_plusify</text>
<text text-anchor="middle" x="155.5" y="-226" font-family="sans" font-size="10.00">operation: plusify</text>
</g>
<!-- 18&#45;&gt;1 -->
<g id="edge8" class="edge">
<title>18&#45;&gt;1</title>
<path fill="none" stroke="grey" stroke-width="2" d="M206.11,-221.78C216.46,-219.69 227.31,-217.65 237.5,-216 371.39,-194.35 528.86,-177.98 618.75,-169.5"/>
<polygon fill="grey" stroke="grey" stroke-width="2" points="619.21,-172.97 628.84,-168.55 618.55,-166 619.21,-172.97"/>
</g>
<!-- 19&#45;&gt;18 -->
<g id="edge33" class="edge">
<title>19&#45;&gt;18</title>
<path fill="none" stroke="grey" stroke-width="2" d="M146.47,-287.7C147.79,-279.98 149.38,-270.71 150.85,-262.11"/>
<polygon fill="grey" stroke="grey" stroke-width="2" points="154.33,-262.55 152.57,-252.1 147.43,-261.37 154.33,-262.55"/>
</g>
<!-- 21 -->
<g id="node22" class="node">
<title>21</title>
<path fill="none" stroke="#56d87b" stroke-width="2" d="M346,-252C346,-252 259,-252 259,-252 253,-252 247,-246 247,-240 247,-240 247,-228 247,-228 247,-222 253,-216 259,-216 259,-216 346,-216 346,-216 352,-216 358,-222 358,-228 358,-228 358,-240 358,-240 358,-246 352,-252 346,-252"/>
<text text-anchor="middle" x="302.5" y="-237" font-family="sans" font-size="10.00">flip_a_plusify</text>
<text text-anchor="middle" x="302.5" y="-226" font-family="sans" font-size="10.00">operation: minusify</text>
</g>
<!-- 19&#45;&gt;21 -->
<g id="edge37" class="edge">
<title>19&#45;&gt;21</title>
<path fill="none" stroke="grey" stroke-width="2" d="M182.4,-287.88C204.13,-278.31 231.4,-266.3 254.46,-256.15"/>
<polygon fill="grey" stroke="grey" stroke-width="2" points="255.99,-259.3 263.73,-252.07 253.17,-252.89 255.99,-259.3"/>
</g>
<!-- 20&#45;&gt;19 -->
<g id="edge34" class="edge">
<title>20&#45;&gt;19</title>
<path fill="none" stroke="grey" stroke-width="2" d="M195.83,-359.69C187.24,-351.04 177.08,-340.81 168.01,-331.68"/>
<polygon fill="grey" stroke="grey" stroke-width="2" points="170.23,-328.95 160.7,-324.32 165.26,-333.88 170.23,-328.95"/>
</g>
<!-- 21&#45;&gt;1 -->
<g id="edge9" class="edge">
<title>21&#45;&gt;1</title>
<path fill="none" stroke="grey" stroke-width="2" d="M358.05,-220.22C364.92,-218.74 371.87,-217.3 378.5,-216 460.64,-199.87 555.48,-184.23 619.04,-174.17"/>
<polygon fill="grey" stroke="grey" stroke-width="2" points="619.64,-177.62 628.97,-172.6 618.55,-170.7 619.64,-177.62"/>
</g>
<!-- 22 -->
<g id="node23" class="node">
<title>22</title>
<path fill="none" stroke="#56d87b" stroke-width="2" d="M477,-252C477,-252 400,-252 400,-252 394,-252 388,-246 388,-240 388,-240 388,-228 388,-228 388,-222 394,-216 400,-216 400,-216 477,-216 477,-216 483,-216 489,-222 489,-228 489,-228 489,-240 489,-240 489,-246 483,-252 477,-252"/>
<text text-anchor="middle" x="438.5" y="-237" font-family="sans" font-size="10.00">flip_a_plusify</text>
<text text-anchor="middle" x="438.5" y="-226" font-family="sans" font-size="10.00">operation: plusify</text>
</g>
<!-- 22&#45;&gt;1 -->
<g id="edge10" class="edge">
<title>22&#45;&gt;1</title>
<path fill="none" stroke="grey" stroke-width="2" d="M489.02,-218.39C491.89,-217.58 494.73,-216.78 497.5,-216 537.6,-204.75 582.45,-192.47 618.92,-182.57"/>
<polygon fill="grey" stroke="grey" stroke-width="2" points="620.24,-185.84 628.97,-179.85 618.4,-179.09 620.24,-185.84"/>
</g>
<!-- 23&#45;&gt;22 -->
<g id="edge38" class="edge">
<title>23&#45;&gt;22</title>
<path fill="none" stroke="grey" stroke-width="2" d="M446.03,-287.7C444.93,-279.98 443.6,-270.71 442.37,-262.11"/>
<polygon fill="grey" stroke="grey" stroke-width="2" points="445.82,-261.51 440.94,-252.1 438.89,-262.5 445.82,-261.51"/>
</g>
<!-- 25 -->
<g id="node26" class="node">
<title>25</title>
<path fill="none" stroke="#56d87b" stroke-width="2" d="M606,-252C606,-252 519,-252 519,-252 513,-252 507,-246 507,-240 507,-240 507,-228 507,-228 507,-222 513,-216 519,-216 519,-216 606,-216 606,-216 612,-216 618,-222 618,-228 618,-228 618,-240 618,-240 618,-246 612,-252 606,-252"/>
<text text-anchor="middle" x="562.5" y="-237" font-family="sans" font-size="10.00">flip_a_plusify</text>
<text text-anchor="middle" x="562.5" y="-226" font-family="sans" font-size="10.00">operation: minusify</text>
</g>
<!-- 23&#45;&gt;25 -->
<g id="edge42" class="edge">
<title>23&#45;&gt;25</title>
<path fill="none" stroke="grey" stroke-width="2" d="M476.39,-287.88C491.29,-278.72 509.83,-267.34 525.88,-257.48"/>
<polygon fill="grey" stroke="grey" stroke-width="2" points="527.81,-260.41 534.51,-252.19 524.15,-254.44 527.81,-260.41"/>
</g>
<!-- 24&#45;&gt;23 -->
<g id="edge39" class="edge">
<title>24&#45;&gt;23</title>
<path fill="none" stroke="grey" stroke-width="2" d="M448.5,-359.69C448.5,-351.91 448.5,-342.84 448.5,-334.45"/>
<polygon fill="grey" stroke="grey" stroke-width="2" points="452,-334.32 448.5,-324.32 445,-334.32 452,-334.32"/>
</g>
<!-- 25&#45;&gt;1 -->
<g id="edge11" class="edge">
<title>25&#45;&gt;1</title>
<path fill="none" stroke="grey" stroke-width="2" d="M594.06,-215.88C611.16,-206.6 632.48,-195.03 650.82,-185.08"/>
<polygon fill="grey" stroke="grey" stroke-width="2" points="652.7,-188.04 659.82,-180.19 649.36,-181.88 652.7,-188.04"/>
</g>
<!-- 26&#45;&gt;0 -->
<g id="edge2" class="edge">
<title>26&#45;&gt;0</title>
<path fill="none" stroke="grey" stroke-width="2" d="M747.96,-71.97C780.8,-62.06 822.37,-49.51 856.81,-39.12"/>
<polygon fill="grey" stroke="grey" stroke-width="2" points="858.23,-42.35 866.79,-36.11 856.21,-35.65 858.23,-42.35"/>
</g>
</g>
</svg>
